<svg xml:space="preserve" width="566.929" height="566.929" xmlns="http://www.w3.org/2000/svg">
  <path style="fill:none" d="M0 .526V150h150V0H0z" transform="scale(3.77953)"/>
  <path d="M29.447 20.807v38.976l-7.944 2.968v43.691l31.775-6.99V82.61h10.923v-7.944H53.278V50.834h10.923v-7.943H53.278V26.05Zm71.495 0L77.11 26.05v16.84H66.187v7.944H77.11v23.832H66.187v7.944H77.11v16.842l15.888 3.495V66.393l7.944-3.591z" style="stroke-width:.999998" transform="translate(37.062 46.3)scale(3.77953)"/>
  <path style="stroke-width:.999998" d="M55.264 21.045h19.86v19.86h-19.86zm0 63.551h19.86v19.86h-19.86zm0-31.775h19.86v19.86h-19.86z" transform="translate(37.062 46.3)scale(3.77953)"/>
</svg>
